#!OML:ASF E:/inclinewalkrobotboard/Project1/Captureday1/Session1/subject1.ASF
:FULLY-SPECIFIED
:DEGREES
126
root 0 0 0 -3.6083940863457684 -15.275576496024101 3.237444613340554
lowerback 7.337994109448076 1.4008605740140871 -0.6182845642265435
upperback 3.0664470393986023 1.7899677834450294 -1.4009314307020297
thorax -0.8350459859718626 0.8648195200982542 -1.2638290794226088
lowerneck -3.0306606086980805 2.5756562885523846 -3.9832997836048536
upperneck 16.236545322778337 3.441749506764476 0.7405407029141946
head 5.440471786464601 1.5673291850711517 1.2021213337740528
rclavicle -1.01157825732181E-15 -4.2841596270108134E-16
rhumerus -21.69800501489802 26.72786273295554 -83.98702650952109
rradius 34.40086542914741
rwrist 23.147712838706333
rhand -9.123892067017152 7.3235828868038935
rfingers 7.125020000000022
rthumb 16.868442226073512 -22.140510867221714
lclavicle -3.009976951892728E-15 8.265448838511711E-16
lhumerus -26.464819940828686 -14.538012866265113 84.96410654474062
lradius 40.388645978350134
lwrist -20.43551443984132
lhand -4.331978502235875 22.845299594457522
lfingers 7.0907066312454905
lthumb 21.215537054097194 59.305725766219595
rfemur -15.905083789644685 13.087189781200395 14.300584705151525
rtibia 35.58579922974121
rfoot -16.49331083587742 -11.892165911062913
rtoes -6.664447358931733
lfemur -24.364026464590523 -1.10101694224654 -10.381347410278856
ltibia 48.98638454346757
lfoot -6.39682493441777 1.2954728217009146
ltoes -8.15096943410983
127
root 0 0 0 -4.134026830150129 -16.483235983227413 3.3728097496406795
lowerback 6.943926751330496 1.318665135784638 -0.4522094095892637
upperback 2.84407796115404 1.7148028327181595 -1.329512079089545
thorax -0.8523733641847644 0.8272534512274077 -1.2665180491635917
lowerneck -3.5354139751201368 2.917115299306467 -3.745847384632932
upperneck 16.157513494793257 3.9332571613383496 0.20432368079234564
head 5.456004509562734 1.800776421849482 1.0129160801441692
rclavicle -2.063093903926855E-15 -1.2870408497753734E-16
rhumerus -16.614133237810755 17.971077114316348 -79.2405338526198
rradius 28.237680239744943
rwrist 28.28892227927578
rhand -8.746595074637215 10.504506025062934
rfingers 7.125020000000027
rthumb 17.21847308544656 -19.029006840243976
lclavicle -3.4093413851460217E-15 9.732315409057282E-16
lhumerus -26.09255562858715 -13.826275471244584 84.46087695459846
lradius 39.560652128552775
lwrist -20.78960040838039
lhand -4.421749882707859 22.704026821527606
lfingers 7.091473355935592
lthumb 21.12652359118575 59.29821546171395
rfemur -14.561234635624238 13.206442826100371 15.034813240029168
rtibia 34.56544415541498
rfoot -17.04599435170158 -12.245442752633249
rtoes -6.351525622864663
lfemur -23.875699719170655 -1.2709709067243065 -10.46191840515833
ltibia 48.24170533142537
lfoot -6.597124855765047 1.6789961626806482
ltoes -7.9067126218485395
128
root 0 0 0 -4.402458189074246 -16.92587747078873 3.206979621989993
lowerback 6.611397146447123 1.3164323759735899 -0.24945470698646122
upperback 2.6141323468560413 1.746353731559246 -1.288628914654557
thorax -0.9130698210627808 0.8428758200138512 -1.334175447470055
lowerneck -4.099890042193912 3.0404777659094413 -3.5744331442888964
upperneck 15.952882963433694 4.1317422771848715 -0.12169445036421944
head 5.469297717367223 1.9016906349955605 0.8794320334171344
rclavicle -3.0499656151154878E-15 1.3730430569700803E-16
rhumerus -6.638095096856002 4.807459209698294 -71.40543256233182
rradius 23.240612158363344
rwrist 33.36398744201918
rhand -10.063447149304281 13.47104030579725
rfingers 7.125020000000031
rthumb 15.926117849572169 -16.174465811574034
lclavicle -3.489545071248757E-15 1.0099469305146909E-15
lhumerus -23.80355243451173 -12.32079951026666 82.63789805423319
lradius 39.80019213413476
lwrist -19.54115529153466
lhand -5.465763333512518 22.86608156618288
lfingers 7.092942478304709
lthumb 20.1177457149164 59.11980390575771
rfemur -12.007310877090315 13.758346712462451 16.26539258416972
rtibia 32.36121600080333
rfoot -18.30710608175417 -12.672654335918947
rtoes -6.1462506212793695
lfemur -23.49634560906978 -1.3959176263273934 -10.528043459913535
ltibia 47.67424863744649
lfoot -6.757815198803409 1.9740142060441492
ltoes -7.717528423595811
129
root 0 0 0 -4.451828296889215 -16.58569689854695 2.6204946149946395
lowerback 6.243388279025629 1.413779845549945 0.062217135629138776
upperback 2.2976597672654977 1.9226371396798987 -1.271366798552937
thorax -1.0469966005991287 0.9302942169109907 -1.50316006332089
lowerneck -4.931078057466477 2.9211579490949933 -3.425133382287238
upperneck 15.549184255433362 4.013405337026212 -0.27985127439635527
head 5.493918090055068 1.8638782497018238 0.7740189100994321
rclavicle -3.912958489702546E-15 3.119069379331805E-16
rhumerus 6.473353809175971 -10.601976037939682 -61.74229784822415
rradius 19.896186284957118
rwrist 37.679062362784194
rhand -12.696242920857413 15.839346757187545
rfingers 7.125020000000037
rthumb 13.380827452317009 -13.949989434687268
lclavicle -3.318553881126146E-15 9.683028522927917E-16
lhumerus -17.48740682918113 -8.897488918784436 77.92715173076417
lradius 41.85293555466032
lwrist -15.196840163771771
lhand -8.472931050128157 23.585613966961724
lfingers 7.096899571757748
lthumb 17.21873647394319 58.59700421977473
rfemur -8.664825929340399 14.222230209240923 18.004639680247216
rtibia 29.824251909360445
rfoot -19.710488533205602 -13.245642993273893
rtoes -5.619983912389475
lfemur -23.945444674343083 -1.1022438868125586 -10.490377952908702
ltibia 48.50063380485945
lfoot -6.732794968742753 1.741751832594029
ltoes -7.880898141141728
130
root 0 0 0 -4.492270247032877 -16.193913580861857 2.2496727585090395
lowerback 6.002002666376448 1.4620320034759555 0.18804866847452173
upperback 2.114882065020539 2.0101530409094344 -1.2659880857777057
thorax -1.1074575268214013 0.9738920095061405 -1.574429294780906
lowerneck -5.356782402131933 2.773642075472267 -3.4020365049465062
upperneck 15.437460544893595 3.823976542197204 -0.24938378639082703
head 5.546240662952558 1.7861271368231955 0.7554739828543799
rclavicle -4.173974751539308E-15 3.7786217090188564E-16
rhumerus 10.99071312248117 -14.925926834780181 -58.723816761104
rradius 20.143420482631605
rwrist 38.116087349058134
rhand -13.968245903985622 15.930345641731257
rfingers 7.12502000000004
rthumb 12.158829048784142 -13.902742266299002
lclavicle -3.0740759193720995E-15 8.9121755047446E-16
lhumerus -10.682534694454974 -5.6632460865412995 73.04907332258607
lradius 44.86347866181376
lwrist -10.048706655315407
lhand -11.749892039954462 24.517996284144917
lfingers 7.10169642191488
lthumb 14.069079334806855 58.08393971815929
rfemur -8.039732237283822 13.666900081241389 18.63850878922389
rtibia 30.1610599900653
rfoot -19.584398099524048 -13.526953758902946
rtoes -4.956344660724911
lfemur -24.824450552762826 -0.5756764452048138 -10.397831169612529
ltibia 50.065648960199134
lfoot -6.664553853159199 1.265839475129856
ltoes -8.260291188615458
